<mxfile host="app.diagrams.net" modified="2024-09-26T13:56:45.364Z" agent="Mozilla/5.0 (Windows NT 10.0; Win64; x64) AppleWebKit/537.36 (KHTML, like Gecko) Chrome/127.0.0.0 Safari/537.36 OPR/113.0.0.0" version="24.4.13" etag="5mhqrEmA8xO59ZKFfh9R" type="github">
  <diagram name="Страница — 1" id="3V6jpC0yMCFk1615mb3v">
    <mxGraphModel>
      <root>
        <mxCell id="0" />
        <mxCell id="1" parent="0" />
      </root>
    </mxGraphModel>
  </diagram>
</mxfile>
